<svg width="586" height="24" viewBox="0 0 586 24" fill="none" xmlns="http://www.w3.org/2000/svg">
<mask id="mask0_11_1447" style="mask-type:alpha" maskUnits="userSpaceOnUse" x="0" y="0" width="24" height="24">
<rect width="24" height="24" fill="#C4C4C4"/>
</mask>
<g mask="url(#mask0_11_1447)">
<path d="M13.95 2.01L9.802 2H9.8C5.426 2 2 5.427 2 9.80201C2 13.9 5.186 17.008 9.465 17.172V21C9.465 21.108 9.509 21.286 9.585 21.403C9.727 21.628 9.96899 21.75 10.217 21.75C10.355 21.75 10.494 21.712 10.619 21.632C10.883 21.464 17.092 17.492 18.707 16.126C20.609 14.516 21.747 12.156 21.75 9.81401V9.79701C21.744 5.43 18.32 2.01 13.95 2.009V2.01ZM17.737 14.982C16.603 15.942 12.875 18.387 10.965 19.625V16.438C10.965 16.024 10.63 15.688 10.215 15.688H9.819C6.159 15.688 3.501 13.212 3.501 9.80201C3.501 6.268 6.269 3.5 9.801 3.5L13.948 3.51H13.95C17.482 3.51 20.25 6.276 20.252 9.80601C20.249 11.716 19.31 13.65 17.738 14.982H17.737Z" fill="#536471"/>
</g>
<path d="M39.6562 18.5H38.375V8.82031C38.276 8.91927 38.1302 9.03385 37.9375 9.16406C37.75 9.28906 37.5365 9.41406 37.2969 9.53906C37.0625 9.66406 36.8125 9.78125 36.5469 9.89062C36.2865 10 36.0312 10.0859 35.7812 10.1484V8.85156C36.0625 8.77344 36.3594 8.66927 36.6719 8.53906C36.9896 8.40365 37.2995 8.25521 37.6016 8.09375C37.9089 7.92708 38.1979 7.75521 38.4688 7.57812C38.7396 7.39583 38.974 7.21875 39.1719 7.04688H39.6562V18.5ZM50.5938 12.8516C50.5938 13.7891 50.5078 14.6198 50.3359 15.3438C50.1693 16.0677 49.9245 16.6797 49.6016 17.1797C49.2839 17.6745 48.8906 18.0521 48.4219 18.3125C47.9583 18.5677 47.4297 18.6953 46.8359 18.6953C46.2734 18.6953 45.7708 18.5729 45.3281 18.3281C44.8906 18.0781 44.5208 17.7161 44.2188 17.2422C43.9167 16.7682 43.6875 16.1875 43.5312 15.5C43.375 14.8073 43.2969 14.0156 43.2969 13.125C43.2969 12.1458 43.3776 11.2812 43.5391 10.5312C43.7057 9.78125 43.9479 9.15365 44.2656 8.64844C44.5833 8.13802 44.9766 7.75521 45.4453 7.5C45.9193 7.23958 46.4609 7.10938 47.0703 7.10938C49.4193 7.10938 50.5938 9.02344 50.5938 12.8516ZM49.2812 12.9766C49.2812 9.78906 48.5234 8.19531 47.0078 8.19531C45.4089 8.19531 44.6094 9.81771 44.6094 13.0625C44.6094 16.0885 45.3932 17.6016 46.9609 17.6016C48.5078 17.6016 49.2812 16.0599 49.2812 12.9766Z" fill="#536471"/>
<mask id="mask1_11_1447" style="mask-type:alpha" maskUnits="userSpaceOnUse" x="152" y="0" width="24" height="24">
<rect x="152" width="24" height="24" fill="#C4C4C4"/>
</mask>
<g mask="url(#mask1_11_1447)">
<path d="M175.758 15.7705C175.466 15.4775 174.992 15.4775 174.699 15.7705L172.479 17.9905V7.7505C172.479 5.6825 170.796 4.0005 168.729 4.0005H162.879C162.465 4.0005 162.129 4.3365 162.129 4.7505C162.129 5.1645 162.465 5.5005 162.879 5.5005H168.729C169.969 5.5005 170.979 6.5105 170.979 7.7505V17.9905L168.759 15.7705C168.466 15.4775 167.991 15.4775 167.699 15.7705C167.407 16.0635 167.405 16.5385 167.699 16.8305L171.199 20.3305C171.344 20.4775 171.536 20.5505 171.729 20.5505C171.922 20.5505 172.111 20.4785 172.258 20.3305L175.758 16.8305C176.052 16.5385 176.052 16.0635 175.758 15.7705ZM165.099 19.0505H159.248C158.009 19.0505 156.998 18.0405 156.998 16.8005V6.5605L159.219 8.7805C159.367 8.9275 159.559 9.00049 159.751 9.00049C159.943 9.00049 160.135 8.9275 160.281 8.7805C160.574 8.4875 160.574 8.01249 160.281 7.7205L156.781 4.2205C156.488 3.9265 156.012 3.9265 155.72 4.2205L152.22 7.7205C151.926 8.01249 151.926 8.4875 152.22 8.7805C152.515 9.0735 152.988 9.0735 153.281 8.7805L155.501 6.5605V16.8005C155.501 18.8685 157.184 20.5505 159.251 20.5505H165.101C165.515 20.5505 165.851 20.2145 165.851 19.8005C165.851 19.3865 165.514 19.0505 165.101 19.0505H165.099Z" fill="#536471"/>
</g>
<path d="M191.656 18.5H190.375V8.82031C190.276 8.91927 190.13 9.03385 189.938 9.16406C189.75 9.28906 189.536 9.41406 189.297 9.53906C189.062 9.66406 188.812 9.78125 188.547 9.89062C188.286 10 188.031 10.0859 187.781 10.1484V8.85156C188.062 8.77344 188.359 8.66927 188.672 8.53906C188.99 8.40365 189.299 8.25521 189.602 8.09375C189.909 7.92708 190.198 7.75521 190.469 7.57812C190.74 7.39583 190.974 7.21875 191.172 7.04688H191.656V18.5Z" fill="#536471"/>
<mask id="mask2_11_1447" style="mask-type:alpha" maskUnits="userSpaceOnUse" x="295" y="0" width="24" height="24">
<rect x="295" width="24" height="24" fill="#C4C4C4"/>
</mask>
<g mask="url(#mask2_11_1447)">
<path d="M307.05 21.914H307.036C304.453 21.866 297 15.132 297 8.754C297 5.69 299.525 3 302.403 3C304.693 3 306.233 4.58 307.049 5.73C307.863 4.582 309.403 3 311.694 3C314.574 3 317.098 5.69 317.098 8.755C317.098 15.131 309.644 21.865 307.061 21.912H307.05V21.914ZM302.404 4.501C300.324 4.501 298.501 6.489 298.501 8.756C298.501 14.496 305.535 20.352 307.051 20.414C308.569 20.352 315.601 14.497 315.601 8.756C315.601 6.489 313.778 4.501 311.698 4.501C309.17 4.501 307.758 7.437 307.746 7.466C307.516 8.028 306.59 8.028 306.359 7.466C306.345 7.436 304.934 4.501 302.405 4.501H302.404Z" fill="#536471"/>
</g>
<path d="M329.703 15.375C329.703 15.0781 329.75 14.7812 329.844 14.4844C329.938 14.1823 330.07 13.901 330.242 13.6406C330.419 13.3802 330.635 13.1432 330.891 12.9297C331.151 12.7161 331.445 12.5469 331.773 12.4219C331.289 12.151 330.904 11.8047 330.617 11.3828C330.331 10.9557 330.188 10.4844 330.188 9.96875C330.188 9.55729 330.266 9.17708 330.422 8.82812C330.583 8.47917 330.805 8.17708 331.086 7.92188C331.367 7.66667 331.701 7.46875 332.086 7.32812C332.471 7.18229 332.888 7.10938 333.336 7.10938C333.789 7.10938 334.208 7.18229 334.594 7.32812C334.979 7.47396 335.312 7.67448 335.594 7.92969C335.875 8.1849 336.094 8.48698 336.25 8.83594C336.406 9.1849 336.484 9.5625 336.484 9.96875C336.484 10.4844 336.341 10.9557 336.055 11.3828C335.768 11.8047 335.388 12.151 334.914 12.4219C335.237 12.5469 335.526 12.7161 335.781 12.9297C336.036 13.1432 336.25 13.3802 336.422 13.6406C336.599 13.901 336.734 14.1823 336.828 14.4844C336.922 14.7812 336.969 15.0781 336.969 15.375C336.969 15.8646 336.88 16.3125 336.703 16.7188C336.526 17.125 336.276 17.474 335.953 17.7656C335.635 18.0521 335.253 18.276 334.805 18.4375C334.362 18.599 333.872 18.6797 333.336 18.6797C332.805 18.6797 332.318 18.599 331.875 18.4375C331.432 18.276 331.049 18.0521 330.727 17.7656C330.404 17.474 330.151 17.125 329.969 16.7188C329.792 16.3125 329.703 15.8646 329.703 15.375ZM331.094 15.2656C331.094 15.6146 331.146 15.9297 331.25 16.2109C331.359 16.4922 331.51 16.7318 331.703 16.9297C331.901 17.1276 332.138 17.2812 332.414 17.3906C332.695 17.4948 333.005 17.5469 333.344 17.5469C333.672 17.5469 333.974 17.4922 334.25 17.3828C334.526 17.2734 334.763 17.1198 334.961 16.9219C335.164 16.724 335.32 16.4844 335.43 16.2031C335.544 15.9219 335.602 15.6094 335.602 15.2656C335.602 14.9531 335.547 14.6615 335.438 14.3906C335.333 14.1146 335.182 13.8724 334.984 13.6641C334.786 13.4557 334.549 13.2917 334.273 13.1719C333.997 13.0521 333.688 12.9922 333.344 12.9922C333.021 12.9922 332.721 13.0495 332.445 13.1641C332.174 13.2734 331.938 13.4297 331.734 13.6328C331.536 13.8307 331.38 14.0703 331.266 14.3516C331.151 14.6276 331.094 14.9323 331.094 15.2656ZM331.492 10.0703C331.492 10.3359 331.539 10.5833 331.633 10.8125C331.732 11.0365 331.865 11.2344 332.031 11.4062C332.203 11.5729 332.401 11.7057 332.625 11.8047C332.849 11.8984 333.089 11.9453 333.344 11.9453C333.599 11.9453 333.839 11.8958 334.062 11.7969C334.292 11.6979 334.49 11.5651 334.656 11.3984C334.823 11.2266 334.956 11.0286 335.055 10.8047C335.154 10.5755 335.203 10.3307 335.203 10.0703C335.203 9.79948 335.154 9.54948 335.055 9.32031C334.961 9.09115 334.831 8.89323 334.664 8.72656C334.497 8.5599 334.299 8.42969 334.07 8.33594C333.846 8.23698 333.604 8.1875 333.344 8.1875C333.068 8.1875 332.815 8.23698 332.586 8.33594C332.362 8.4349 332.167 8.57031 332 8.74219C331.839 8.90885 331.714 9.10677 331.625 9.33594C331.536 9.5651 331.492 9.8099 331.492 10.0703Z" fill="#536471"/>
<mask id="mask3_11_1447" style="mask-type:alpha" maskUnits="userSpaceOnUse" x="438" y="0" width="24" height="24">
<rect x="438" width="24" height="24" fill="#C4C4C4"/>
</mask>
<g mask="url(#mask3_11_1447)">
<path d="M455.53 7.21975L450.53 2.21975C450.237 1.92675 449.762 1.92675 449.47 2.21975L444.47 7.21975C444.176 7.51275 444.176 7.98775 444.47 8.27975C444.764 8.57175 445.237 8.57375 445.53 8.27975L449.25 4.55975V14.7498C449.25 15.1638 449.586 15.4998 450 15.4998C450.414 15.4998 450.75 15.1638 450.75 14.7498V4.55975L454.47 8.27975C454.616 8.42675 454.808 8.49975 455 8.49975C455.192 8.49975 455.384 8.42775 455.53 8.27975C455.823 7.98675 455.823 7.51275 455.53 7.21975Z" fill="#536471"/>
<path d="M457.708 21.6938H442.292C441.028 21.6938 440 20.6658 440 19.4018V13.7498C440 13.3358 440.336 12.9998 440.75 12.9998C441.164 12.9998 441.5 13.3358 441.5 13.7498V19.4018C441.5 19.8388 441.855 20.1938 442.292 20.1938H457.708C458.145 20.1938 458.5 19.8388 458.5 19.4018V13.7498C458.5 13.3358 458.836 12.9998 459.25 12.9998C459.664 12.9998 460 13.3358 460 13.7498V19.4018C460 20.6658 458.972 21.6938 457.708 21.6938Z" fill="#536471"/>
</g>
<mask id="mask4_11_1447" style="mask-type:alpha" maskUnits="userSpaceOnUse" x="562" y="0" width="24" height="24">
<rect x="562" width="24" height="24" fill="#C4C4C4"/>
</mask>
<g mask="url(#mask4_11_1447)">
<path d="M568 11H570V22H568V11Z" fill="#536471"/>
<path d="M573 2H575V22H573V2Z" fill="#536471"/>
<path d="M578 8H580V22H578V8Z" fill="#536471"/>
</g>
</svg>
