<svg width="558" height="24" viewBox="0 0 558 24" fill="none" xmlns="http://www.w3.org/2000/svg">
<mask id="mask0_202_300" style="mask-type:alpha" maskUnits="userSpaceOnUse" x="0" y="0" width="24" height="24">
<rect width="24" height="24" fill="#C4C4C4"/>
</mask>
<g mask="url(#mask0_202_300)">
<path d="M13.95 2.01L9.802 2H9.8C5.426 2 2 5.427 2 9.80201C2 13.9 5.186 17.008 9.465 17.172V21C9.465 21.108 9.509 21.286 9.585 21.403C9.727 21.628 9.96899 21.75 10.217 21.75C10.355 21.75 10.494 21.712 10.619 21.632C10.883 21.464 17.092 17.492 18.707 16.126C20.609 14.516 21.747 12.156 21.75 9.81401V9.79701C21.744 5.43 18.32 2.01 13.95 2.009V2.01ZM17.737 14.982C16.603 15.942 12.875 18.387 10.965 19.625V16.438C10.965 16.024 10.63 15.688 10.215 15.688H9.819C6.159 15.688 3.501 13.212 3.501 9.80201C3.501 6.268 6.269 3.5 9.801 3.5L13.948 3.51H13.95C17.482 3.51 20.25 6.276 20.252 9.80601C20.249 11.716 19.31 13.65 17.738 14.982H17.737Z" fill="#536471"/>
</g>
<mask id="mask1_202_300" style="mask-type:alpha" maskUnits="userSpaceOnUse" x="124" y="0" width="24" height="24">
<rect x="124" width="24" height="24" fill="#C4C4C4"/>
</mask>
<g mask="url(#mask1_202_300)">
<path d="M147.758 15.7705C147.466 15.4775 146.992 15.4775 146.699 15.7705L144.479 17.9905V7.7505C144.479 5.6825 142.796 4.0005 140.729 4.0005H134.879C134.465 4.0005 134.129 4.3365 134.129 4.7505C134.129 5.1645 134.465 5.5005 134.879 5.5005H140.729C141.969 5.5005 142.979 6.5105 142.979 7.7505V17.9905L140.759 15.7705C140.466 15.4775 139.991 15.4775 139.699 15.7705C139.407 16.0635 139.405 16.5385 139.699 16.8305L143.199 20.3305C143.344 20.4775 143.536 20.5505 143.729 20.5505C143.922 20.5505 144.111 20.4785 144.258 20.3305L147.758 16.8305C148.052 16.5385 148.052 16.0635 147.758 15.7705ZM137.099 19.0505H131.248C130.009 19.0505 128.998 18.0405 128.998 16.8005V6.5605L131.219 8.7805C131.367 8.9275 131.559 9.00049 131.751 9.00049C131.943 9.00049 132.135 8.9275 132.281 8.7805C132.574 8.4875 132.574 8.01249 132.281 7.7205L128.781 4.2205C128.488 3.9265 128.012 3.9265 127.72 4.2205L124.22 7.7205C123.926 8.01249 123.926 8.4875 124.22 8.7805C124.515 9.0735 124.988 9.0735 125.281 8.7805L127.501 6.5605V16.8005C127.501 18.8685 129.184 20.5505 131.251 20.5505H137.101C137.515 20.5505 137.851 20.2145 137.851 19.8005C137.851 19.3865 137.514 19.0505 137.101 19.0505H137.099Z" fill="#0CB345"/>
</g>
<path d="M159.281 18.2422V16.5C160.016 16.9948 160.76 17.2422 161.516 17.2422C162.276 17.2422 162.888 17.0495 163.352 16.6641C163.815 16.2734 164.047 15.7552 164.047 15.1094C164.047 14.474 163.81 13.9792 163.336 13.625C162.867 13.2708 162.193 13.0938 161.312 13.0938C161.01 13.0938 160.451 13.125 159.633 13.1875V7.29688H165.391V8.84375H161.227V11.6484C161.565 11.6276 161.88 11.6172 162.172 11.6172C163.359 11.6172 164.276 11.9219 164.922 12.5312C165.573 13.1406 165.898 13.974 165.898 15.0312C165.898 16.1406 165.526 17.0312 164.781 17.7031C164.042 18.3698 163.023 18.7031 161.727 18.7031C160.633 18.7031 159.818 18.5495 159.281 18.2422Z" fill="#0CB345"/>
<path d="M279 21.638H278.986C276.403 21.59 268.95 14.856 268.95 8.478C268.95 5.414 271.475 2.724 274.353 2.724C276.643 2.724 278.183 4.304 278.999 5.454C279.813 4.306 281.353 2.724 283.644 2.724C286.524 2.724 289.048 5.414 289.048 8.479C289.048 14.855 281.594 21.589 279.011 21.636H279V21.638Z" fill="#EF1C5C"/>
<path d="M302.297 18.2891V16.7188C302.901 17.0729 303.542 17.25 304.219 17.25C305.203 17.25 305.969 16.8932 306.516 16.1797C307.062 15.4609 307.336 14.4427 307.336 13.125C307.326 13.1302 307.315 13.1302 307.305 13.125C306.841 13.9896 306.034 14.4219 304.883 14.4219C303.951 14.4219 303.182 14.0938 302.578 13.4375C301.979 12.776 301.68 11.9271 301.68 10.8906C301.68 9.78646 302.034 8.88021 302.742 8.17188C303.451 7.46354 304.354 7.10938 305.453 7.10938C306.609 7.10938 307.51 7.54688 308.156 8.42188C308.807 9.29167 309.133 10.5625 309.133 12.2344C309.133 14.2969 308.711 15.888 307.867 17.0078C307.023 18.1276 305.852 18.6875 304.352 18.6875C303.56 18.6875 302.875 18.5547 302.297 18.2891ZM305.328 8.55469C304.802 8.55469 304.362 8.76042 304.008 9.17188C303.654 9.58333 303.477 10.1042 303.477 10.7344C303.477 11.4323 303.648 11.9792 303.992 12.375C304.341 12.7708 304.812 12.9688 305.406 12.9688C305.922 12.9688 306.357 12.7891 306.711 12.4297C307.07 12.0651 307.25 11.6198 307.25 11.0938C307.25 10.349 307.07 9.73958 306.711 9.26562C306.357 8.79167 305.896 8.55469 305.328 8.55469Z" fill="#EF1C5C"/>
<mask id="mask2_202_300" style="mask-type:alpha" maskUnits="userSpaceOnUse" x="410" y="0" width="24" height="24">
<rect x="410" width="24" height="24" fill="#C4C4C4"/>
</mask>
<g mask="url(#mask2_202_300)">
<path d="M427.53 7.21975L422.53 2.21975C422.237 1.92675 421.762 1.92675 421.47 2.21975L416.47 7.21975C416.176 7.51275 416.176 7.98775 416.47 8.27975C416.764 8.57175 417.237 8.57375 417.53 8.27975L421.25 4.55975V14.7498C421.25 15.1638 421.586 15.4998 422 15.4998C422.414 15.4998 422.75 15.1638 422.75 14.7498V4.55975L426.47 8.27975C426.616 8.42675 426.808 8.49975 427 8.49975C427.192 8.49975 427.384 8.42775 427.53 8.27975C427.823 7.98675 427.823 7.51275 427.53 7.21975Z" fill="#536471"/>
<path d="M429.708 21.6938H414.292C413.028 21.6938 412 20.6658 412 19.4018V13.7498C412 13.3358 412.336 12.9998 412.75 12.9998C413.164 12.9998 413.5 13.3358 413.5 13.7498V19.4018C413.5 19.8388 413.855 20.1938 414.292 20.1938H429.708C430.145 20.1938 430.5 19.8388 430.5 19.4018V13.7498C430.5 13.3358 430.836 12.9998 431.25 12.9998C431.664 12.9998 432 13.3358 432 13.7498V19.4018C432 20.6658 430.972 21.6938 429.708 21.6938Z" fill="#536471"/>
</g>
<mask id="mask3_202_300" style="mask-type:alpha" maskUnits="userSpaceOnUse" x="534" y="0" width="24" height="24">
<rect x="534" width="24" height="24" fill="#C4C4C4"/>
</mask>
<g mask="url(#mask3_202_300)">
<path d="M540 11H542V22H540V11Z" fill="#536471"/>
<path d="M545 2H547V22H545V2Z" fill="#536471"/>
<path d="M550 8H552V22H550V8Z" fill="#536471"/>
</g>
</svg>
